%TF.GenerationSoftware,KiCad,Pcbnew,8.0.3*%
%TF.CreationDate,2024-12-22T23:45:43+05:30*%
%TF.ProjectId,STM32-pcb-design,53544d33-322d-4706-9362-2d6465736967,rev?*%
%TF.SameCoordinates,Original*%
%TF.FileFunction,Paste,Top*%
%TF.FilePolarity,Positive*%
%FSLAX46Y46*%
G04 Gerber Fmt 4.6, Leading zero omitted, Abs format (unit mm)*
G04 Created by KiCad (PCBNEW 8.0.3) date 2024-12-22 23:45:43*
%MOMM*%
%LPD*%
G01*
G04 APERTURE LIST*
G04 Aperture macros list*
%AMRoundRect*
0 Rectangle with rounded corners*
0 $1 Rounding radius*
0 $2 $3 $4 $5 $6 $7 $8 $9 X,Y pos of 4 corners*
0 Add a 4 corners polygon primitive as box body*
4,1,4,$2,$3,$4,$5,$6,$7,$8,$9,$2,$3,0*
0 Add four circle primitives for the rounded corners*
1,1,$1+$1,$2,$3*
1,1,$1+$1,$4,$5*
1,1,$1+$1,$6,$7*
1,1,$1+$1,$8,$9*
0 Add four rect primitives between the rounded corners*
20,1,$1+$1,$2,$3,$4,$5,0*
20,1,$1+$1,$4,$5,$6,$7,0*
20,1,$1+$1,$6,$7,$8,$9,0*
20,1,$1+$1,$8,$9,$2,$3,0*%
G04 Aperture macros list end*
%ADD10R,0.700000X1.500000*%
%ADD11R,1.000000X0.800000*%
%ADD12R,0.800000X1.000000*%
%ADD13R,1.500000X0.700000*%
%ADD14R,1.200000X1.400000*%
%ADD15RoundRect,0.375000X0.375000X-0.625000X0.375000X0.625000X-0.375000X0.625000X-0.375000X-0.625000X0*%
%ADD16RoundRect,0.500000X1.400000X-0.500000X1.400000X0.500000X-1.400000X0.500000X-1.400000X-0.500000X0*%
%ADD17RoundRect,0.075000X-0.075000X-0.662500X0.075000X-0.662500X0.075000X0.662500X-0.075000X0.662500X0*%
%ADD18RoundRect,0.075000X-0.662500X-0.075000X0.662500X-0.075000X0.662500X0.075000X-0.662500X0.075000X0*%
%ADD19RoundRect,0.135000X0.135000X0.185000X-0.135000X0.185000X-0.135000X-0.185000X0.135000X-0.185000X0*%
%ADD20RoundRect,0.135000X0.185000X-0.135000X0.185000X0.135000X-0.185000X0.135000X-0.185000X-0.135000X0*%
%ADD21RoundRect,0.135000X-0.185000X0.135000X-0.185000X-0.135000X0.185000X-0.135000X0.185000X0.135000X0*%
%ADD22RoundRect,0.135000X-0.135000X-0.185000X0.135000X-0.185000X0.135000X0.185000X-0.135000X0.185000X0*%
%ADD23R,1.300000X0.450000*%
%ADD24RoundRect,0.218750X0.256250X-0.218750X0.256250X0.218750X-0.256250X0.218750X-0.256250X-0.218750X0*%
%ADD25RoundRect,0.218750X0.218750X0.256250X-0.218750X0.256250X-0.218750X-0.256250X0.218750X-0.256250X0*%
%ADD26RoundRect,0.218750X-0.218750X-0.256250X0.218750X-0.256250X0.218750X0.256250X-0.218750X0.256250X0*%
%ADD27RoundRect,0.140000X0.170000X-0.140000X0.170000X0.140000X-0.170000X0.140000X-0.170000X-0.140000X0*%
%ADD28RoundRect,0.140000X-0.170000X0.140000X-0.170000X-0.140000X0.170000X-0.140000X0.170000X0.140000X0*%
%ADD29RoundRect,0.225000X0.225000X0.250000X-0.225000X0.250000X-0.225000X-0.250000X0.225000X-0.250000X0*%
%ADD30RoundRect,0.140000X-0.140000X-0.170000X0.140000X-0.170000X0.140000X0.170000X-0.140000X0.170000X0*%
%ADD31RoundRect,0.225000X0.250000X-0.225000X0.250000X0.225000X-0.250000X0.225000X-0.250000X-0.225000X0*%
%ADD32RoundRect,0.140000X0.140000X0.170000X-0.140000X0.170000X-0.140000X-0.170000X0.140000X-0.170000X0*%
G04 APERTURE END LIST*
D10*
%TO.C,SW3*%
X107190000Y-57170000D03*
X105690000Y-57170000D03*
X102690000Y-57170000D03*
D11*
X108590000Y-60030000D03*
X108590000Y-57820000D03*
X101290000Y-60030000D03*
X101290000Y-57820000D03*
%TD*%
%TO.C,SW2*%
X103230000Y-33280000D03*
X103230000Y-31070000D03*
X95930000Y-33280000D03*
X95930000Y-31070000D03*
D10*
X101830000Y-33930000D03*
X98830000Y-33930000D03*
X97330000Y-33930000D03*
%TD*%
D12*
%TO.C,SW1*%
X93370000Y-34670000D03*
X91160000Y-34670000D03*
X93370000Y-41970000D03*
X91160000Y-41970000D03*
D13*
X94020000Y-36070000D03*
X94020000Y-39070000D03*
X94020000Y-40570000D03*
%TD*%
D14*
%TO.C,Y1*%
X92025000Y-45725000D03*
X92025000Y-47925000D03*
X93725000Y-47925000D03*
X93725000Y-45725000D03*
%TD*%
D15*
%TO.C,U2*%
X111832500Y-55370000D03*
X114132500Y-55370000D03*
D16*
X114132500Y-49070000D03*
D15*
X116432500Y-55370000D03*
%TD*%
D17*
%TO.C,U1*%
X101800000Y-42012500D03*
X102300000Y-42012500D03*
X102800000Y-42012500D03*
X103300000Y-42012500D03*
X103800000Y-42012500D03*
X104300000Y-42012500D03*
X104800000Y-42012500D03*
X105300000Y-42012500D03*
X105800000Y-42012500D03*
X106300000Y-42012500D03*
X106800000Y-42012500D03*
X107300000Y-42012500D03*
D18*
X108712500Y-43425000D03*
X108712500Y-43925000D03*
X108712500Y-44425000D03*
X108712500Y-44925000D03*
X108712500Y-45425000D03*
X108712500Y-45925000D03*
X108712500Y-46425000D03*
X108712500Y-46925000D03*
X108712500Y-47425000D03*
X108712500Y-47925000D03*
X108712500Y-48425000D03*
X108712500Y-48925000D03*
D17*
X107300000Y-50337500D03*
X106800000Y-50337500D03*
X106300000Y-50337500D03*
X105800000Y-50337500D03*
X105300000Y-50337500D03*
X104800000Y-50337500D03*
X104300000Y-50337500D03*
X103800000Y-50337500D03*
X103300000Y-50337500D03*
X102800000Y-50337500D03*
X102300000Y-50337500D03*
X101800000Y-50337500D03*
D18*
X100387500Y-48925000D03*
X100387500Y-48425000D03*
X100387500Y-47925000D03*
X100387500Y-47425000D03*
X100387500Y-46925000D03*
X100387500Y-46425000D03*
X100387500Y-45925000D03*
X100387500Y-45425000D03*
X100387500Y-44925000D03*
X100387500Y-44425000D03*
X100387500Y-43925000D03*
X100387500Y-43425000D03*
%TD*%
D19*
%TO.C,R7*%
X105035000Y-40250000D03*
X104015000Y-40250000D03*
%TD*%
%TO.C,R6*%
X106275000Y-40175000D03*
X107295000Y-40175000D03*
%TD*%
D20*
%TO.C,R5*%
X102000000Y-55290000D03*
X102000000Y-54270000D03*
%TD*%
D19*
%TO.C,R4*%
X119310000Y-53940000D03*
X118290000Y-53940000D03*
%TD*%
D21*
%TO.C,R3*%
X114220000Y-43310000D03*
X114220000Y-44330000D03*
%TD*%
D22*
%TO.C,R2*%
X99590000Y-41500000D03*
X100610000Y-41500000D03*
%TD*%
%TO.C,R1*%
X101790000Y-37525000D03*
X102810000Y-37525000D03*
%TD*%
D23*
%TO.C,J1*%
X119410000Y-41235000D03*
X119410000Y-41885000D03*
X119410000Y-42535000D03*
X119410000Y-43185000D03*
X119410000Y-43835000D03*
%TD*%
D24*
%TO.C,FB1*%
X99325000Y-53142500D03*
X99325000Y-51567500D03*
%TD*%
D25*
%TO.C,D2*%
X104987500Y-53700000D03*
X103412500Y-53700000D03*
%TD*%
D26*
%TO.C,D1*%
X118282500Y-57620000D03*
X119857500Y-57620000D03*
%TD*%
D27*
%TO.C,C15*%
X99860000Y-57160000D03*
X99860000Y-56200000D03*
%TD*%
D28*
%TO.C,C14*%
X104800000Y-32500000D03*
X104800000Y-31540000D03*
%TD*%
D29*
%TO.C,C13*%
X113370000Y-57570000D03*
X111820000Y-57570000D03*
%TD*%
%TO.C,C12*%
X116570000Y-57570000D03*
X115020000Y-57570000D03*
%TD*%
D27*
%TO.C,C11*%
X95125000Y-48505000D03*
X95125000Y-47545000D03*
%TD*%
D28*
%TO.C,C10*%
X95150000Y-45225000D03*
X95150000Y-46185000D03*
%TD*%
D30*
%TO.C,C9*%
X99465000Y-38950000D03*
X100425000Y-38950000D03*
%TD*%
D27*
%TO.C,C8*%
X97725000Y-51735000D03*
X97725000Y-50775000D03*
%TD*%
D28*
%TO.C,C7*%
X97800000Y-53225000D03*
X97800000Y-54185000D03*
%TD*%
D27*
%TO.C,C6*%
X98675000Y-47980000D03*
X98675000Y-47020000D03*
%TD*%
D31*
%TO.C,C5*%
X94800000Y-53350000D03*
X94800000Y-51800000D03*
%TD*%
D32*
%TO.C,C4*%
X107655000Y-52025000D03*
X106695000Y-52025000D03*
%TD*%
D30*
%TO.C,C3*%
X101670000Y-40275000D03*
X102630000Y-40275000D03*
%TD*%
D28*
%TO.C,C2*%
X110425000Y-43350000D03*
X110425000Y-44310000D03*
%TD*%
D27*
%TO.C,C1*%
X98650000Y-43555000D03*
X98650000Y-42595000D03*
%TD*%
M02*
