%TF.GenerationSoftware,KiCad,Pcbnew,8.0.3*%
%TF.CreationDate,2024-12-22T23:45:43+05:30*%
%TF.ProjectId,STM32-pcb-design,53544d33-322d-4706-9362-2d6465736967,rev?*%
%TF.SameCoordinates,Original*%
%TF.FileFunction,Legend,Top*%
%TF.FilePolarity,Positive*%
%FSLAX46Y46*%
G04 Gerber Fmt 4.6, Leading zero omitted, Abs format (unit mm)*
G04 Created by KiCad (PCBNEW 8.0.3) date 2024-12-22 23:45:43*
%MOMM*%
%LPD*%
G01*
G04 APERTURE LIST*
%ADD10C,0.100000*%
%ADD11C,0.150000*%
%ADD12C,0.120000*%
G04 APERTURE END LIST*
D10*
X91493884Y-58952419D02*
X91493884Y-59761942D01*
X91493884Y-59761942D02*
X91541503Y-59857180D01*
X91541503Y-59857180D02*
X91589122Y-59904800D01*
X91589122Y-59904800D02*
X91684360Y-59952419D01*
X91684360Y-59952419D02*
X91874836Y-59952419D01*
X91874836Y-59952419D02*
X91970074Y-59904800D01*
X91970074Y-59904800D02*
X92017693Y-59857180D01*
X92017693Y-59857180D02*
X92065312Y-59761942D01*
X92065312Y-59761942D02*
X92065312Y-58952419D01*
X92493884Y-59904800D02*
X92589122Y-59952419D01*
X92589122Y-59952419D02*
X92779598Y-59952419D01*
X92779598Y-59952419D02*
X92874836Y-59904800D01*
X92874836Y-59904800D02*
X92922455Y-59809561D01*
X92922455Y-59809561D02*
X92922455Y-59761942D01*
X92922455Y-59761942D02*
X92874836Y-59666704D01*
X92874836Y-59666704D02*
X92779598Y-59619085D01*
X92779598Y-59619085D02*
X92636741Y-59619085D01*
X92636741Y-59619085D02*
X92541503Y-59571466D01*
X92541503Y-59571466D02*
X92493884Y-59476228D01*
X92493884Y-59476228D02*
X92493884Y-59428609D01*
X92493884Y-59428609D02*
X92541503Y-59333371D01*
X92541503Y-59333371D02*
X92636741Y-59285752D01*
X92636741Y-59285752D02*
X92779598Y-59285752D01*
X92779598Y-59285752D02*
X92874836Y-59333371D01*
X93731979Y-59904800D02*
X93636741Y-59952419D01*
X93636741Y-59952419D02*
X93446265Y-59952419D01*
X93446265Y-59952419D02*
X93351027Y-59904800D01*
X93351027Y-59904800D02*
X93303408Y-59809561D01*
X93303408Y-59809561D02*
X93303408Y-59428609D01*
X93303408Y-59428609D02*
X93351027Y-59333371D01*
X93351027Y-59333371D02*
X93446265Y-59285752D01*
X93446265Y-59285752D02*
X93636741Y-59285752D01*
X93636741Y-59285752D02*
X93731979Y-59333371D01*
X93731979Y-59333371D02*
X93779598Y-59428609D01*
X93779598Y-59428609D02*
X93779598Y-59523847D01*
X93779598Y-59523847D02*
X93303408Y-59619085D01*
X94208170Y-59952419D02*
X94208170Y-59285752D01*
X94208170Y-59476228D02*
X94255789Y-59380990D01*
X94255789Y-59380990D02*
X94303408Y-59333371D01*
X94303408Y-59333371D02*
X94398646Y-59285752D01*
X94398646Y-59285752D02*
X94493884Y-59285752D01*
X95541504Y-59904800D02*
X95684361Y-59952419D01*
X95684361Y-59952419D02*
X95922456Y-59952419D01*
X95922456Y-59952419D02*
X96017694Y-59904800D01*
X96017694Y-59904800D02*
X96065313Y-59857180D01*
X96065313Y-59857180D02*
X96112932Y-59761942D01*
X96112932Y-59761942D02*
X96112932Y-59666704D01*
X96112932Y-59666704D02*
X96065313Y-59571466D01*
X96065313Y-59571466D02*
X96017694Y-59523847D01*
X96017694Y-59523847D02*
X95922456Y-59476228D01*
X95922456Y-59476228D02*
X95731980Y-59428609D01*
X95731980Y-59428609D02*
X95636742Y-59380990D01*
X95636742Y-59380990D02*
X95589123Y-59333371D01*
X95589123Y-59333371D02*
X95541504Y-59238133D01*
X95541504Y-59238133D02*
X95541504Y-59142895D01*
X95541504Y-59142895D02*
X95589123Y-59047657D01*
X95589123Y-59047657D02*
X95636742Y-59000038D01*
X95636742Y-59000038D02*
X95731980Y-58952419D01*
X95731980Y-58952419D02*
X95970075Y-58952419D01*
X95970075Y-58952419D02*
X96112932Y-59000038D01*
X96446266Y-59285752D02*
X96636742Y-59952419D01*
X96636742Y-59952419D02*
X96827218Y-59476228D01*
X96827218Y-59476228D02*
X97017694Y-59952419D01*
X97017694Y-59952419D02*
X97208170Y-59285752D01*
X97589123Y-59952419D02*
X97589123Y-59285752D01*
X97589123Y-58952419D02*
X97541504Y-59000038D01*
X97541504Y-59000038D02*
X97589123Y-59047657D01*
X97589123Y-59047657D02*
X97636742Y-59000038D01*
X97636742Y-59000038D02*
X97589123Y-58952419D01*
X97589123Y-58952419D02*
X97589123Y-59047657D01*
X97922456Y-59285752D02*
X98303408Y-59285752D01*
X98065313Y-58952419D02*
X98065313Y-59809561D01*
X98065313Y-59809561D02*
X98112932Y-59904800D01*
X98112932Y-59904800D02*
X98208170Y-59952419D01*
X98208170Y-59952419D02*
X98303408Y-59952419D01*
X99065313Y-59904800D02*
X98970075Y-59952419D01*
X98970075Y-59952419D02*
X98779599Y-59952419D01*
X98779599Y-59952419D02*
X98684361Y-59904800D01*
X98684361Y-59904800D02*
X98636742Y-59857180D01*
X98636742Y-59857180D02*
X98589123Y-59761942D01*
X98589123Y-59761942D02*
X98589123Y-59476228D01*
X98589123Y-59476228D02*
X98636742Y-59380990D01*
X98636742Y-59380990D02*
X98684361Y-59333371D01*
X98684361Y-59333371D02*
X98779599Y-59285752D01*
X98779599Y-59285752D02*
X98970075Y-59285752D01*
X98970075Y-59285752D02*
X99065313Y-59333371D01*
X99493885Y-59952419D02*
X99493885Y-58952419D01*
X99922456Y-59952419D02*
X99922456Y-59428609D01*
X99922456Y-59428609D02*
X99874837Y-59333371D01*
X99874837Y-59333371D02*
X99779599Y-59285752D01*
X99779599Y-59285752D02*
X99636742Y-59285752D01*
X99636742Y-59285752D02*
X99541504Y-59333371D01*
X99541504Y-59333371D02*
X99493885Y-59380990D01*
X107657217Y-31838609D02*
X107800074Y-31886228D01*
X107800074Y-31886228D02*
X107847693Y-31933847D01*
X107847693Y-31933847D02*
X107895312Y-32029085D01*
X107895312Y-32029085D02*
X107895312Y-32171942D01*
X107895312Y-32171942D02*
X107847693Y-32267180D01*
X107847693Y-32267180D02*
X107800074Y-32314800D01*
X107800074Y-32314800D02*
X107704836Y-32362419D01*
X107704836Y-32362419D02*
X107323884Y-32362419D01*
X107323884Y-32362419D02*
X107323884Y-31362419D01*
X107323884Y-31362419D02*
X107657217Y-31362419D01*
X107657217Y-31362419D02*
X107752455Y-31410038D01*
X107752455Y-31410038D02*
X107800074Y-31457657D01*
X107800074Y-31457657D02*
X107847693Y-31552895D01*
X107847693Y-31552895D02*
X107847693Y-31648133D01*
X107847693Y-31648133D02*
X107800074Y-31743371D01*
X107800074Y-31743371D02*
X107752455Y-31790990D01*
X107752455Y-31790990D02*
X107657217Y-31838609D01*
X107657217Y-31838609D02*
X107323884Y-31838609D01*
X108514360Y-31362419D02*
X108704836Y-31362419D01*
X108704836Y-31362419D02*
X108800074Y-31410038D01*
X108800074Y-31410038D02*
X108895312Y-31505276D01*
X108895312Y-31505276D02*
X108942931Y-31695752D01*
X108942931Y-31695752D02*
X108942931Y-32029085D01*
X108942931Y-32029085D02*
X108895312Y-32219561D01*
X108895312Y-32219561D02*
X108800074Y-32314800D01*
X108800074Y-32314800D02*
X108704836Y-32362419D01*
X108704836Y-32362419D02*
X108514360Y-32362419D01*
X108514360Y-32362419D02*
X108419122Y-32314800D01*
X108419122Y-32314800D02*
X108323884Y-32219561D01*
X108323884Y-32219561D02*
X108276265Y-32029085D01*
X108276265Y-32029085D02*
X108276265Y-31695752D01*
X108276265Y-31695752D02*
X108323884Y-31505276D01*
X108323884Y-31505276D02*
X108419122Y-31410038D01*
X108419122Y-31410038D02*
X108514360Y-31362419D01*
X109561979Y-31362419D02*
X109752455Y-31362419D01*
X109752455Y-31362419D02*
X109847693Y-31410038D01*
X109847693Y-31410038D02*
X109942931Y-31505276D01*
X109942931Y-31505276D02*
X109990550Y-31695752D01*
X109990550Y-31695752D02*
X109990550Y-32029085D01*
X109990550Y-32029085D02*
X109942931Y-32219561D01*
X109942931Y-32219561D02*
X109847693Y-32314800D01*
X109847693Y-32314800D02*
X109752455Y-32362419D01*
X109752455Y-32362419D02*
X109561979Y-32362419D01*
X109561979Y-32362419D02*
X109466741Y-32314800D01*
X109466741Y-32314800D02*
X109371503Y-32219561D01*
X109371503Y-32219561D02*
X109323884Y-32029085D01*
X109323884Y-32029085D02*
X109323884Y-31695752D01*
X109323884Y-31695752D02*
X109371503Y-31505276D01*
X109371503Y-31505276D02*
X109466741Y-31410038D01*
X109466741Y-31410038D02*
X109561979Y-31362419D01*
X110276265Y-31362419D02*
X110847693Y-31362419D01*
X110561979Y-32362419D02*
X110561979Y-31362419D01*
X111371503Y-31362419D02*
X111466741Y-31362419D01*
X111466741Y-31362419D02*
X111561979Y-31410038D01*
X111561979Y-31410038D02*
X111609598Y-31457657D01*
X111609598Y-31457657D02*
X111657217Y-31552895D01*
X111657217Y-31552895D02*
X111704836Y-31743371D01*
X111704836Y-31743371D02*
X111704836Y-31981466D01*
X111704836Y-31981466D02*
X111657217Y-32171942D01*
X111657217Y-32171942D02*
X111609598Y-32267180D01*
X111609598Y-32267180D02*
X111561979Y-32314800D01*
X111561979Y-32314800D02*
X111466741Y-32362419D01*
X111466741Y-32362419D02*
X111371503Y-32362419D01*
X111371503Y-32362419D02*
X111276265Y-32314800D01*
X111276265Y-32314800D02*
X111228646Y-32267180D01*
X111228646Y-32267180D02*
X111181027Y-32171942D01*
X111181027Y-32171942D02*
X111133408Y-31981466D01*
X111133408Y-31981466D02*
X111133408Y-31743371D01*
X111133408Y-31743371D02*
X111181027Y-31552895D01*
X111181027Y-31552895D02*
X111228646Y-31457657D01*
X111228646Y-31457657D02*
X111276265Y-31410038D01*
X111276265Y-31410038D02*
X111371503Y-31362419D01*
X91363884Y-32902419D02*
X91363884Y-31902419D01*
X91363884Y-31902419D02*
X91935312Y-32902419D01*
X91935312Y-32902419D02*
X91935312Y-31902419D01*
X92982931Y-32902419D02*
X92649598Y-32426228D01*
X92411503Y-32902419D02*
X92411503Y-31902419D01*
X92411503Y-31902419D02*
X92792455Y-31902419D01*
X92792455Y-31902419D02*
X92887693Y-31950038D01*
X92887693Y-31950038D02*
X92935312Y-31997657D01*
X92935312Y-31997657D02*
X92982931Y-32092895D01*
X92982931Y-32092895D02*
X92982931Y-32235752D01*
X92982931Y-32235752D02*
X92935312Y-32330990D01*
X92935312Y-32330990D02*
X92887693Y-32378609D01*
X92887693Y-32378609D02*
X92792455Y-32426228D01*
X92792455Y-32426228D02*
X92411503Y-32426228D01*
X93363884Y-32854800D02*
X93506741Y-32902419D01*
X93506741Y-32902419D02*
X93744836Y-32902419D01*
X93744836Y-32902419D02*
X93840074Y-32854800D01*
X93840074Y-32854800D02*
X93887693Y-32807180D01*
X93887693Y-32807180D02*
X93935312Y-32711942D01*
X93935312Y-32711942D02*
X93935312Y-32616704D01*
X93935312Y-32616704D02*
X93887693Y-32521466D01*
X93887693Y-32521466D02*
X93840074Y-32473847D01*
X93840074Y-32473847D02*
X93744836Y-32426228D01*
X93744836Y-32426228D02*
X93554360Y-32378609D01*
X93554360Y-32378609D02*
X93459122Y-32330990D01*
X93459122Y-32330990D02*
X93411503Y-32283371D01*
X93411503Y-32283371D02*
X93363884Y-32188133D01*
X93363884Y-32188133D02*
X93363884Y-32092895D01*
X93363884Y-32092895D02*
X93411503Y-31997657D01*
X93411503Y-31997657D02*
X93459122Y-31950038D01*
X93459122Y-31950038D02*
X93554360Y-31902419D01*
X93554360Y-31902419D02*
X93792455Y-31902419D01*
X93792455Y-31902419D02*
X93935312Y-31950038D01*
X94221027Y-31902419D02*
X94792455Y-31902419D01*
X94506741Y-32902419D02*
X94506741Y-31902419D01*
X109313884Y-34502419D02*
X109313884Y-33502419D01*
X109742455Y-33597657D02*
X109790074Y-33550038D01*
X109790074Y-33550038D02*
X109885312Y-33502419D01*
X109885312Y-33502419D02*
X110123407Y-33502419D01*
X110123407Y-33502419D02*
X110218645Y-33550038D01*
X110218645Y-33550038D02*
X110266264Y-33597657D01*
X110266264Y-33597657D02*
X110313883Y-33692895D01*
X110313883Y-33692895D02*
X110313883Y-33788133D01*
X110313883Y-33788133D02*
X110266264Y-33930990D01*
X110266264Y-33930990D02*
X109694836Y-34502419D01*
X109694836Y-34502419D02*
X110313883Y-34502419D01*
X111313883Y-34407180D02*
X111266264Y-34454800D01*
X111266264Y-34454800D02*
X111123407Y-34502419D01*
X111123407Y-34502419D02*
X111028169Y-34502419D01*
X111028169Y-34502419D02*
X110885312Y-34454800D01*
X110885312Y-34454800D02*
X110790074Y-34359561D01*
X110790074Y-34359561D02*
X110742455Y-34264323D01*
X110742455Y-34264323D02*
X110694836Y-34073847D01*
X110694836Y-34073847D02*
X110694836Y-33930990D01*
X110694836Y-33930990D02*
X110742455Y-33740514D01*
X110742455Y-33740514D02*
X110790074Y-33645276D01*
X110790074Y-33645276D02*
X110885312Y-33550038D01*
X110885312Y-33550038D02*
X111028169Y-33502419D01*
X111028169Y-33502419D02*
X111123407Y-33502419D01*
X111123407Y-33502419D02*
X111266264Y-33550038D01*
X111266264Y-33550038D02*
X111313883Y-33597657D01*
X120642419Y-53406115D02*
X121451942Y-53406115D01*
X121451942Y-53406115D02*
X121547180Y-53358496D01*
X121547180Y-53358496D02*
X121594800Y-53310877D01*
X121594800Y-53310877D02*
X121642419Y-53215639D01*
X121642419Y-53215639D02*
X121642419Y-53025163D01*
X121642419Y-53025163D02*
X121594800Y-52929925D01*
X121594800Y-52929925D02*
X121547180Y-52882306D01*
X121547180Y-52882306D02*
X121451942Y-52834687D01*
X121451942Y-52834687D02*
X120642419Y-52834687D01*
X121356704Y-52406115D02*
X121356704Y-51929925D01*
X121642419Y-52501353D02*
X120642419Y-52168020D01*
X120642419Y-52168020D02*
X121642419Y-51834687D01*
X121642419Y-50929925D02*
X121166228Y-51263258D01*
X121642419Y-51501353D02*
X120642419Y-51501353D01*
X120642419Y-51501353D02*
X120642419Y-51120401D01*
X120642419Y-51120401D02*
X120690038Y-51025163D01*
X120690038Y-51025163D02*
X120737657Y-50977544D01*
X120737657Y-50977544D02*
X120832895Y-50929925D01*
X120832895Y-50929925D02*
X120975752Y-50929925D01*
X120975752Y-50929925D02*
X121070990Y-50977544D01*
X121070990Y-50977544D02*
X121118609Y-51025163D01*
X121118609Y-51025163D02*
X121166228Y-51120401D01*
X121166228Y-51120401D02*
X121166228Y-51501353D01*
X120642419Y-50644210D02*
X120642419Y-50072782D01*
X121642419Y-50358496D02*
X120642419Y-50358496D01*
X122086265Y-35824800D02*
X122229122Y-35872419D01*
X122229122Y-35872419D02*
X122467217Y-35872419D01*
X122467217Y-35872419D02*
X122562455Y-35824800D01*
X122562455Y-35824800D02*
X122610074Y-35777180D01*
X122610074Y-35777180D02*
X122657693Y-35681942D01*
X122657693Y-35681942D02*
X122657693Y-35586704D01*
X122657693Y-35586704D02*
X122610074Y-35491466D01*
X122610074Y-35491466D02*
X122562455Y-35443847D01*
X122562455Y-35443847D02*
X122467217Y-35396228D01*
X122467217Y-35396228D02*
X122276741Y-35348609D01*
X122276741Y-35348609D02*
X122181503Y-35300990D01*
X122181503Y-35300990D02*
X122133884Y-35253371D01*
X122133884Y-35253371D02*
X122086265Y-35158133D01*
X122086265Y-35158133D02*
X122086265Y-35062895D01*
X122086265Y-35062895D02*
X122133884Y-34967657D01*
X122133884Y-34967657D02*
X122181503Y-34920038D01*
X122181503Y-34920038D02*
X122276741Y-34872419D01*
X122276741Y-34872419D02*
X122514836Y-34872419D01*
X122514836Y-34872419D02*
X122657693Y-34920038D01*
X122991027Y-34872419D02*
X123229122Y-35872419D01*
X123229122Y-35872419D02*
X123419598Y-35158133D01*
X123419598Y-35158133D02*
X123610074Y-35872419D01*
X123610074Y-35872419D02*
X123848170Y-34872419D01*
X124229122Y-35872419D02*
X124229122Y-34872419D01*
X124229122Y-34872419D02*
X124467217Y-34872419D01*
X124467217Y-34872419D02*
X124610074Y-34920038D01*
X124610074Y-34920038D02*
X124705312Y-35015276D01*
X124705312Y-35015276D02*
X124752931Y-35110514D01*
X124752931Y-35110514D02*
X124800550Y-35300990D01*
X124800550Y-35300990D02*
X124800550Y-35443847D01*
X124800550Y-35443847D02*
X124752931Y-35634323D01*
X124752931Y-35634323D02*
X124705312Y-35729561D01*
X124705312Y-35729561D02*
X124610074Y-35824800D01*
X124610074Y-35824800D02*
X124467217Y-35872419D01*
X124467217Y-35872419D02*
X124229122Y-35872419D01*
D11*
X91273809Y-44153628D02*
X91273809Y-44629819D01*
X90940476Y-43629819D02*
X91273809Y-44153628D01*
X91273809Y-44153628D02*
X91607142Y-43629819D01*
X92464285Y-44629819D02*
X91892857Y-44629819D01*
X92178571Y-44629819D02*
X92178571Y-43629819D01*
X92178571Y-43629819D02*
X92083333Y-43772676D01*
X92083333Y-43772676D02*
X91988095Y-43867914D01*
X91988095Y-43867914D02*
X91892857Y-43915533D01*
X109087319Y-52981904D02*
X109896842Y-52981904D01*
X109896842Y-52981904D02*
X109992080Y-52934285D01*
X109992080Y-52934285D02*
X110039700Y-52886666D01*
X110039700Y-52886666D02*
X110087319Y-52791428D01*
X110087319Y-52791428D02*
X110087319Y-52600952D01*
X110087319Y-52600952D02*
X110039700Y-52505714D01*
X110039700Y-52505714D02*
X109992080Y-52458095D01*
X109992080Y-52458095D02*
X109896842Y-52410476D01*
X109896842Y-52410476D02*
X109087319Y-52410476D01*
X109182557Y-51981904D02*
X109134938Y-51934285D01*
X109134938Y-51934285D02*
X109087319Y-51839047D01*
X109087319Y-51839047D02*
X109087319Y-51600952D01*
X109087319Y-51600952D02*
X109134938Y-51505714D01*
X109134938Y-51505714D02*
X109182557Y-51458095D01*
X109182557Y-51458095D02*
X109277795Y-51410476D01*
X109277795Y-51410476D02*
X109373033Y-51410476D01*
X109373033Y-51410476D02*
X109515890Y-51458095D01*
X109515890Y-51458095D02*
X110087319Y-52029523D01*
X110087319Y-52029523D02*
X110087319Y-51410476D01*
X107888095Y-41279819D02*
X107888095Y-42089342D01*
X107888095Y-42089342D02*
X107935714Y-42184580D01*
X107935714Y-42184580D02*
X107983333Y-42232200D01*
X107983333Y-42232200D02*
X108078571Y-42279819D01*
X108078571Y-42279819D02*
X108269047Y-42279819D01*
X108269047Y-42279819D02*
X108364285Y-42232200D01*
X108364285Y-42232200D02*
X108411904Y-42184580D01*
X108411904Y-42184580D02*
X108459523Y-42089342D01*
X108459523Y-42089342D02*
X108459523Y-41279819D01*
X109459523Y-42279819D02*
X108888095Y-42279819D01*
X109173809Y-42279819D02*
X109173809Y-41279819D01*
X109173809Y-41279819D02*
X109078571Y-41422676D01*
X109078571Y-41422676D02*
X108983333Y-41517914D01*
X108983333Y-41517914D02*
X108888095Y-41565533D01*
X104103333Y-39554819D02*
X103770000Y-39078628D01*
X103531905Y-39554819D02*
X103531905Y-38554819D01*
X103531905Y-38554819D02*
X103912857Y-38554819D01*
X103912857Y-38554819D02*
X104008095Y-38602438D01*
X104008095Y-38602438D02*
X104055714Y-38650057D01*
X104055714Y-38650057D02*
X104103333Y-38745295D01*
X104103333Y-38745295D02*
X104103333Y-38888152D01*
X104103333Y-38888152D02*
X104055714Y-38983390D01*
X104055714Y-38983390D02*
X104008095Y-39031009D01*
X104008095Y-39031009D02*
X103912857Y-39078628D01*
X103912857Y-39078628D02*
X103531905Y-39078628D01*
X104436667Y-38554819D02*
X105103333Y-38554819D01*
X105103333Y-38554819D02*
X104674762Y-39554819D01*
X108793333Y-40614819D02*
X108460000Y-40138628D01*
X108221905Y-40614819D02*
X108221905Y-39614819D01*
X108221905Y-39614819D02*
X108602857Y-39614819D01*
X108602857Y-39614819D02*
X108698095Y-39662438D01*
X108698095Y-39662438D02*
X108745714Y-39710057D01*
X108745714Y-39710057D02*
X108793333Y-39805295D01*
X108793333Y-39805295D02*
X108793333Y-39948152D01*
X108793333Y-39948152D02*
X108745714Y-40043390D01*
X108745714Y-40043390D02*
X108698095Y-40091009D01*
X108698095Y-40091009D02*
X108602857Y-40138628D01*
X108602857Y-40138628D02*
X108221905Y-40138628D01*
X109650476Y-39614819D02*
X109460000Y-39614819D01*
X109460000Y-39614819D02*
X109364762Y-39662438D01*
X109364762Y-39662438D02*
X109317143Y-39710057D01*
X109317143Y-39710057D02*
X109221905Y-39852914D01*
X109221905Y-39852914D02*
X109174286Y-40043390D01*
X109174286Y-40043390D02*
X109174286Y-40424342D01*
X109174286Y-40424342D02*
X109221905Y-40519580D01*
X109221905Y-40519580D02*
X109269524Y-40567200D01*
X109269524Y-40567200D02*
X109364762Y-40614819D01*
X109364762Y-40614819D02*
X109555238Y-40614819D01*
X109555238Y-40614819D02*
X109650476Y-40567200D01*
X109650476Y-40567200D02*
X109698095Y-40519580D01*
X109698095Y-40519580D02*
X109745714Y-40424342D01*
X109745714Y-40424342D02*
X109745714Y-40186247D01*
X109745714Y-40186247D02*
X109698095Y-40091009D01*
X109698095Y-40091009D02*
X109650476Y-40043390D01*
X109650476Y-40043390D02*
X109555238Y-39995771D01*
X109555238Y-39995771D02*
X109364762Y-39995771D01*
X109364762Y-39995771D02*
X109269524Y-40043390D01*
X109269524Y-40043390D02*
X109221905Y-40091009D01*
X109221905Y-40091009D02*
X109174286Y-40186247D01*
X101214819Y-54536666D02*
X100738628Y-54869999D01*
X101214819Y-55108094D02*
X100214819Y-55108094D01*
X100214819Y-55108094D02*
X100214819Y-54727142D01*
X100214819Y-54727142D02*
X100262438Y-54631904D01*
X100262438Y-54631904D02*
X100310057Y-54584285D01*
X100310057Y-54584285D02*
X100405295Y-54536666D01*
X100405295Y-54536666D02*
X100548152Y-54536666D01*
X100548152Y-54536666D02*
X100643390Y-54584285D01*
X100643390Y-54584285D02*
X100691009Y-54631904D01*
X100691009Y-54631904D02*
X100738628Y-54727142D01*
X100738628Y-54727142D02*
X100738628Y-55108094D01*
X100214819Y-53631904D02*
X100214819Y-54108094D01*
X100214819Y-54108094D02*
X100691009Y-54155713D01*
X100691009Y-54155713D02*
X100643390Y-54108094D01*
X100643390Y-54108094D02*
X100595771Y-54012856D01*
X100595771Y-54012856D02*
X100595771Y-53774761D01*
X100595771Y-53774761D02*
X100643390Y-53679523D01*
X100643390Y-53679523D02*
X100691009Y-53631904D01*
X100691009Y-53631904D02*
X100786247Y-53584285D01*
X100786247Y-53584285D02*
X101024342Y-53584285D01*
X101024342Y-53584285D02*
X101119580Y-53631904D01*
X101119580Y-53631904D02*
X101167200Y-53679523D01*
X101167200Y-53679523D02*
X101214819Y-53774761D01*
X101214819Y-53774761D02*
X101214819Y-54012856D01*
X101214819Y-54012856D02*
X101167200Y-54108094D01*
X101167200Y-54108094D02*
X101119580Y-54155713D01*
X118513333Y-53294819D02*
X118180000Y-52818628D01*
X117941905Y-53294819D02*
X117941905Y-52294819D01*
X117941905Y-52294819D02*
X118322857Y-52294819D01*
X118322857Y-52294819D02*
X118418095Y-52342438D01*
X118418095Y-52342438D02*
X118465714Y-52390057D01*
X118465714Y-52390057D02*
X118513333Y-52485295D01*
X118513333Y-52485295D02*
X118513333Y-52628152D01*
X118513333Y-52628152D02*
X118465714Y-52723390D01*
X118465714Y-52723390D02*
X118418095Y-52771009D01*
X118418095Y-52771009D02*
X118322857Y-52818628D01*
X118322857Y-52818628D02*
X117941905Y-52818628D01*
X119370476Y-52628152D02*
X119370476Y-53294819D01*
X119132381Y-52247200D02*
X118894286Y-52961485D01*
X118894286Y-52961485D02*
X119513333Y-52961485D01*
X115874819Y-43536666D02*
X115398628Y-43869999D01*
X115874819Y-44108094D02*
X114874819Y-44108094D01*
X114874819Y-44108094D02*
X114874819Y-43727142D01*
X114874819Y-43727142D02*
X114922438Y-43631904D01*
X114922438Y-43631904D02*
X114970057Y-43584285D01*
X114970057Y-43584285D02*
X115065295Y-43536666D01*
X115065295Y-43536666D02*
X115208152Y-43536666D01*
X115208152Y-43536666D02*
X115303390Y-43584285D01*
X115303390Y-43584285D02*
X115351009Y-43631904D01*
X115351009Y-43631904D02*
X115398628Y-43727142D01*
X115398628Y-43727142D02*
X115398628Y-44108094D01*
X114874819Y-43203332D02*
X114874819Y-42584285D01*
X114874819Y-42584285D02*
X115255771Y-42917618D01*
X115255771Y-42917618D02*
X115255771Y-42774761D01*
X115255771Y-42774761D02*
X115303390Y-42679523D01*
X115303390Y-42679523D02*
X115351009Y-42631904D01*
X115351009Y-42631904D02*
X115446247Y-42584285D01*
X115446247Y-42584285D02*
X115684342Y-42584285D01*
X115684342Y-42584285D02*
X115779580Y-42631904D01*
X115779580Y-42631904D02*
X115827200Y-42679523D01*
X115827200Y-42679523D02*
X115874819Y-42774761D01*
X115874819Y-42774761D02*
X115874819Y-43060475D01*
X115874819Y-43060475D02*
X115827200Y-43155713D01*
X115827200Y-43155713D02*
X115779580Y-43203332D01*
X99933333Y-40784819D02*
X99600000Y-40308628D01*
X99361905Y-40784819D02*
X99361905Y-39784819D01*
X99361905Y-39784819D02*
X99742857Y-39784819D01*
X99742857Y-39784819D02*
X99838095Y-39832438D01*
X99838095Y-39832438D02*
X99885714Y-39880057D01*
X99885714Y-39880057D02*
X99933333Y-39975295D01*
X99933333Y-39975295D02*
X99933333Y-40118152D01*
X99933333Y-40118152D02*
X99885714Y-40213390D01*
X99885714Y-40213390D02*
X99838095Y-40261009D01*
X99838095Y-40261009D02*
X99742857Y-40308628D01*
X99742857Y-40308628D02*
X99361905Y-40308628D01*
X100314286Y-39880057D02*
X100361905Y-39832438D01*
X100361905Y-39832438D02*
X100457143Y-39784819D01*
X100457143Y-39784819D02*
X100695238Y-39784819D01*
X100695238Y-39784819D02*
X100790476Y-39832438D01*
X100790476Y-39832438D02*
X100838095Y-39880057D01*
X100838095Y-39880057D02*
X100885714Y-39975295D01*
X100885714Y-39975295D02*
X100885714Y-40070533D01*
X100885714Y-40070533D02*
X100838095Y-40213390D01*
X100838095Y-40213390D02*
X100266667Y-40784819D01*
X100266667Y-40784819D02*
X100885714Y-40784819D01*
X102133333Y-36809819D02*
X101800000Y-36333628D01*
X101561905Y-36809819D02*
X101561905Y-35809819D01*
X101561905Y-35809819D02*
X101942857Y-35809819D01*
X101942857Y-35809819D02*
X102038095Y-35857438D01*
X102038095Y-35857438D02*
X102085714Y-35905057D01*
X102085714Y-35905057D02*
X102133333Y-36000295D01*
X102133333Y-36000295D02*
X102133333Y-36143152D01*
X102133333Y-36143152D02*
X102085714Y-36238390D01*
X102085714Y-36238390D02*
X102038095Y-36286009D01*
X102038095Y-36286009D02*
X101942857Y-36333628D01*
X101942857Y-36333628D02*
X101561905Y-36333628D01*
X103085714Y-36809819D02*
X102514286Y-36809819D01*
X102800000Y-36809819D02*
X102800000Y-35809819D01*
X102800000Y-35809819D02*
X102704762Y-35952676D01*
X102704762Y-35952676D02*
X102609524Y-36047914D01*
X102609524Y-36047914D02*
X102514286Y-36095533D01*
X100706009Y-53088333D02*
X100706009Y-53421666D01*
X101229819Y-53421666D02*
X100229819Y-53421666D01*
X100229819Y-53421666D02*
X100229819Y-52945476D01*
X100706009Y-52231190D02*
X100753628Y-52088333D01*
X100753628Y-52088333D02*
X100801247Y-52040714D01*
X100801247Y-52040714D02*
X100896485Y-51993095D01*
X100896485Y-51993095D02*
X101039342Y-51993095D01*
X101039342Y-51993095D02*
X101134580Y-52040714D01*
X101134580Y-52040714D02*
X101182200Y-52088333D01*
X101182200Y-52088333D02*
X101229819Y-52183571D01*
X101229819Y-52183571D02*
X101229819Y-52564523D01*
X101229819Y-52564523D02*
X100229819Y-52564523D01*
X100229819Y-52564523D02*
X100229819Y-52231190D01*
X100229819Y-52231190D02*
X100277438Y-52135952D01*
X100277438Y-52135952D02*
X100325057Y-52088333D01*
X100325057Y-52088333D02*
X100420295Y-52040714D01*
X100420295Y-52040714D02*
X100515533Y-52040714D01*
X100515533Y-52040714D02*
X100610771Y-52088333D01*
X100610771Y-52088333D02*
X100658390Y-52135952D01*
X100658390Y-52135952D02*
X100706009Y-52231190D01*
X100706009Y-52231190D02*
X100706009Y-52564523D01*
X101229819Y-51040714D02*
X101229819Y-51612142D01*
X101229819Y-51326428D02*
X100229819Y-51326428D01*
X100229819Y-51326428D02*
X100372676Y-51421666D01*
X100372676Y-51421666D02*
X100467914Y-51516904D01*
X100467914Y-51516904D02*
X100515533Y-51612142D01*
X104121905Y-55714819D02*
X104121905Y-54714819D01*
X104121905Y-54714819D02*
X104360000Y-54714819D01*
X104360000Y-54714819D02*
X104502857Y-54762438D01*
X104502857Y-54762438D02*
X104598095Y-54857676D01*
X104598095Y-54857676D02*
X104645714Y-54952914D01*
X104645714Y-54952914D02*
X104693333Y-55143390D01*
X104693333Y-55143390D02*
X104693333Y-55286247D01*
X104693333Y-55286247D02*
X104645714Y-55476723D01*
X104645714Y-55476723D02*
X104598095Y-55571961D01*
X104598095Y-55571961D02*
X104502857Y-55667200D01*
X104502857Y-55667200D02*
X104360000Y-55714819D01*
X104360000Y-55714819D02*
X104121905Y-55714819D01*
X105074286Y-54810057D02*
X105121905Y-54762438D01*
X105121905Y-54762438D02*
X105217143Y-54714819D01*
X105217143Y-54714819D02*
X105455238Y-54714819D01*
X105455238Y-54714819D02*
X105550476Y-54762438D01*
X105550476Y-54762438D02*
X105598095Y-54810057D01*
X105598095Y-54810057D02*
X105645714Y-54905295D01*
X105645714Y-54905295D02*
X105645714Y-55000533D01*
X105645714Y-55000533D02*
X105598095Y-55143390D01*
X105598095Y-55143390D02*
X105026667Y-55714819D01*
X105026667Y-55714819D02*
X105645714Y-55714819D01*
X118331905Y-56644819D02*
X118331905Y-55644819D01*
X118331905Y-55644819D02*
X118570000Y-55644819D01*
X118570000Y-55644819D02*
X118712857Y-55692438D01*
X118712857Y-55692438D02*
X118808095Y-55787676D01*
X118808095Y-55787676D02*
X118855714Y-55882914D01*
X118855714Y-55882914D02*
X118903333Y-56073390D01*
X118903333Y-56073390D02*
X118903333Y-56216247D01*
X118903333Y-56216247D02*
X118855714Y-56406723D01*
X118855714Y-56406723D02*
X118808095Y-56501961D01*
X118808095Y-56501961D02*
X118712857Y-56597200D01*
X118712857Y-56597200D02*
X118570000Y-56644819D01*
X118570000Y-56644819D02*
X118331905Y-56644819D01*
X119855714Y-56644819D02*
X119284286Y-56644819D01*
X119570000Y-56644819D02*
X119570000Y-55644819D01*
X119570000Y-55644819D02*
X119474762Y-55787676D01*
X119474762Y-55787676D02*
X119379524Y-55882914D01*
X119379524Y-55882914D02*
X119284286Y-55930533D01*
X99059580Y-57322857D02*
X99107200Y-57370476D01*
X99107200Y-57370476D02*
X99154819Y-57513333D01*
X99154819Y-57513333D02*
X99154819Y-57608571D01*
X99154819Y-57608571D02*
X99107200Y-57751428D01*
X99107200Y-57751428D02*
X99011961Y-57846666D01*
X99011961Y-57846666D02*
X98916723Y-57894285D01*
X98916723Y-57894285D02*
X98726247Y-57941904D01*
X98726247Y-57941904D02*
X98583390Y-57941904D01*
X98583390Y-57941904D02*
X98392914Y-57894285D01*
X98392914Y-57894285D02*
X98297676Y-57846666D01*
X98297676Y-57846666D02*
X98202438Y-57751428D01*
X98202438Y-57751428D02*
X98154819Y-57608571D01*
X98154819Y-57608571D02*
X98154819Y-57513333D01*
X98154819Y-57513333D02*
X98202438Y-57370476D01*
X98202438Y-57370476D02*
X98250057Y-57322857D01*
X99154819Y-56370476D02*
X99154819Y-56941904D01*
X99154819Y-56656190D02*
X98154819Y-56656190D01*
X98154819Y-56656190D02*
X98297676Y-56751428D01*
X98297676Y-56751428D02*
X98392914Y-56846666D01*
X98392914Y-56846666D02*
X98440533Y-56941904D01*
X98154819Y-55465714D02*
X98154819Y-55941904D01*
X98154819Y-55941904D02*
X98631009Y-55989523D01*
X98631009Y-55989523D02*
X98583390Y-55941904D01*
X98583390Y-55941904D02*
X98535771Y-55846666D01*
X98535771Y-55846666D02*
X98535771Y-55608571D01*
X98535771Y-55608571D02*
X98583390Y-55513333D01*
X98583390Y-55513333D02*
X98631009Y-55465714D01*
X98631009Y-55465714D02*
X98726247Y-55418095D01*
X98726247Y-55418095D02*
X98964342Y-55418095D01*
X98964342Y-55418095D02*
X99059580Y-55465714D01*
X99059580Y-55465714D02*
X99107200Y-55513333D01*
X99107200Y-55513333D02*
X99154819Y-55608571D01*
X99154819Y-55608571D02*
X99154819Y-55846666D01*
X99154819Y-55846666D02*
X99107200Y-55941904D01*
X99107200Y-55941904D02*
X99059580Y-55989523D01*
X106499580Y-33262857D02*
X106547200Y-33310476D01*
X106547200Y-33310476D02*
X106594819Y-33453333D01*
X106594819Y-33453333D02*
X106594819Y-33548571D01*
X106594819Y-33548571D02*
X106547200Y-33691428D01*
X106547200Y-33691428D02*
X106451961Y-33786666D01*
X106451961Y-33786666D02*
X106356723Y-33834285D01*
X106356723Y-33834285D02*
X106166247Y-33881904D01*
X106166247Y-33881904D02*
X106023390Y-33881904D01*
X106023390Y-33881904D02*
X105832914Y-33834285D01*
X105832914Y-33834285D02*
X105737676Y-33786666D01*
X105737676Y-33786666D02*
X105642438Y-33691428D01*
X105642438Y-33691428D02*
X105594819Y-33548571D01*
X105594819Y-33548571D02*
X105594819Y-33453333D01*
X105594819Y-33453333D02*
X105642438Y-33310476D01*
X105642438Y-33310476D02*
X105690057Y-33262857D01*
X106594819Y-32310476D02*
X106594819Y-32881904D01*
X106594819Y-32596190D02*
X105594819Y-32596190D01*
X105594819Y-32596190D02*
X105737676Y-32691428D01*
X105737676Y-32691428D02*
X105832914Y-32786666D01*
X105832914Y-32786666D02*
X105880533Y-32881904D01*
X105928152Y-31453333D02*
X106594819Y-31453333D01*
X105547200Y-31691428D02*
X106261485Y-31929523D01*
X106261485Y-31929523D02*
X106261485Y-31310476D01*
X111952142Y-59359580D02*
X111904523Y-59407200D01*
X111904523Y-59407200D02*
X111761666Y-59454819D01*
X111761666Y-59454819D02*
X111666428Y-59454819D01*
X111666428Y-59454819D02*
X111523571Y-59407200D01*
X111523571Y-59407200D02*
X111428333Y-59311961D01*
X111428333Y-59311961D02*
X111380714Y-59216723D01*
X111380714Y-59216723D02*
X111333095Y-59026247D01*
X111333095Y-59026247D02*
X111333095Y-58883390D01*
X111333095Y-58883390D02*
X111380714Y-58692914D01*
X111380714Y-58692914D02*
X111428333Y-58597676D01*
X111428333Y-58597676D02*
X111523571Y-58502438D01*
X111523571Y-58502438D02*
X111666428Y-58454819D01*
X111666428Y-58454819D02*
X111761666Y-58454819D01*
X111761666Y-58454819D02*
X111904523Y-58502438D01*
X111904523Y-58502438D02*
X111952142Y-58550057D01*
X112904523Y-59454819D02*
X112333095Y-59454819D01*
X112618809Y-59454819D02*
X112618809Y-58454819D01*
X112618809Y-58454819D02*
X112523571Y-58597676D01*
X112523571Y-58597676D02*
X112428333Y-58692914D01*
X112428333Y-58692914D02*
X112333095Y-58740533D01*
X113237857Y-58454819D02*
X113856904Y-58454819D01*
X113856904Y-58454819D02*
X113523571Y-58835771D01*
X113523571Y-58835771D02*
X113666428Y-58835771D01*
X113666428Y-58835771D02*
X113761666Y-58883390D01*
X113761666Y-58883390D02*
X113809285Y-58931009D01*
X113809285Y-58931009D02*
X113856904Y-59026247D01*
X113856904Y-59026247D02*
X113856904Y-59264342D01*
X113856904Y-59264342D02*
X113809285Y-59359580D01*
X113809285Y-59359580D02*
X113761666Y-59407200D01*
X113761666Y-59407200D02*
X113666428Y-59454819D01*
X113666428Y-59454819D02*
X113380714Y-59454819D01*
X113380714Y-59454819D02*
X113285476Y-59407200D01*
X113285476Y-59407200D02*
X113237857Y-59359580D01*
X115152142Y-59359580D02*
X115104523Y-59407200D01*
X115104523Y-59407200D02*
X114961666Y-59454819D01*
X114961666Y-59454819D02*
X114866428Y-59454819D01*
X114866428Y-59454819D02*
X114723571Y-59407200D01*
X114723571Y-59407200D02*
X114628333Y-59311961D01*
X114628333Y-59311961D02*
X114580714Y-59216723D01*
X114580714Y-59216723D02*
X114533095Y-59026247D01*
X114533095Y-59026247D02*
X114533095Y-58883390D01*
X114533095Y-58883390D02*
X114580714Y-58692914D01*
X114580714Y-58692914D02*
X114628333Y-58597676D01*
X114628333Y-58597676D02*
X114723571Y-58502438D01*
X114723571Y-58502438D02*
X114866428Y-58454819D01*
X114866428Y-58454819D02*
X114961666Y-58454819D01*
X114961666Y-58454819D02*
X115104523Y-58502438D01*
X115104523Y-58502438D02*
X115152142Y-58550057D01*
X116104523Y-59454819D02*
X115533095Y-59454819D01*
X115818809Y-59454819D02*
X115818809Y-58454819D01*
X115818809Y-58454819D02*
X115723571Y-58597676D01*
X115723571Y-58597676D02*
X115628333Y-58692914D01*
X115628333Y-58692914D02*
X115533095Y-58740533D01*
X116485476Y-58550057D02*
X116533095Y-58502438D01*
X116533095Y-58502438D02*
X116628333Y-58454819D01*
X116628333Y-58454819D02*
X116866428Y-58454819D01*
X116866428Y-58454819D02*
X116961666Y-58502438D01*
X116961666Y-58502438D02*
X117009285Y-58550057D01*
X117009285Y-58550057D02*
X117056904Y-58645295D01*
X117056904Y-58645295D02*
X117056904Y-58740533D01*
X117056904Y-58740533D02*
X117009285Y-58883390D01*
X117009285Y-58883390D02*
X116437857Y-59454819D01*
X116437857Y-59454819D02*
X117056904Y-59454819D01*
X94182142Y-50384580D02*
X94134523Y-50432200D01*
X94134523Y-50432200D02*
X93991666Y-50479819D01*
X93991666Y-50479819D02*
X93896428Y-50479819D01*
X93896428Y-50479819D02*
X93753571Y-50432200D01*
X93753571Y-50432200D02*
X93658333Y-50336961D01*
X93658333Y-50336961D02*
X93610714Y-50241723D01*
X93610714Y-50241723D02*
X93563095Y-50051247D01*
X93563095Y-50051247D02*
X93563095Y-49908390D01*
X93563095Y-49908390D02*
X93610714Y-49717914D01*
X93610714Y-49717914D02*
X93658333Y-49622676D01*
X93658333Y-49622676D02*
X93753571Y-49527438D01*
X93753571Y-49527438D02*
X93896428Y-49479819D01*
X93896428Y-49479819D02*
X93991666Y-49479819D01*
X93991666Y-49479819D02*
X94134523Y-49527438D01*
X94134523Y-49527438D02*
X94182142Y-49575057D01*
X95134523Y-50479819D02*
X94563095Y-50479819D01*
X94848809Y-50479819D02*
X94848809Y-49479819D01*
X94848809Y-49479819D02*
X94753571Y-49622676D01*
X94753571Y-49622676D02*
X94658333Y-49717914D01*
X94658333Y-49717914D02*
X94563095Y-49765533D01*
X96086904Y-50479819D02*
X95515476Y-50479819D01*
X95801190Y-50479819D02*
X95801190Y-49479819D01*
X95801190Y-49479819D02*
X95705952Y-49622676D01*
X95705952Y-49622676D02*
X95610714Y-49717914D01*
X95610714Y-49717914D02*
X95515476Y-49765533D01*
X94432142Y-44384580D02*
X94384523Y-44432200D01*
X94384523Y-44432200D02*
X94241666Y-44479819D01*
X94241666Y-44479819D02*
X94146428Y-44479819D01*
X94146428Y-44479819D02*
X94003571Y-44432200D01*
X94003571Y-44432200D02*
X93908333Y-44336961D01*
X93908333Y-44336961D02*
X93860714Y-44241723D01*
X93860714Y-44241723D02*
X93813095Y-44051247D01*
X93813095Y-44051247D02*
X93813095Y-43908390D01*
X93813095Y-43908390D02*
X93860714Y-43717914D01*
X93860714Y-43717914D02*
X93908333Y-43622676D01*
X93908333Y-43622676D02*
X94003571Y-43527438D01*
X94003571Y-43527438D02*
X94146428Y-43479819D01*
X94146428Y-43479819D02*
X94241666Y-43479819D01*
X94241666Y-43479819D02*
X94384523Y-43527438D01*
X94384523Y-43527438D02*
X94432142Y-43575057D01*
X95384523Y-44479819D02*
X94813095Y-44479819D01*
X95098809Y-44479819D02*
X95098809Y-43479819D01*
X95098809Y-43479819D02*
X95003571Y-43622676D01*
X95003571Y-43622676D02*
X94908333Y-43717914D01*
X94908333Y-43717914D02*
X94813095Y-43765533D01*
X96003571Y-43479819D02*
X96098809Y-43479819D01*
X96098809Y-43479819D02*
X96194047Y-43527438D01*
X96194047Y-43527438D02*
X96241666Y-43575057D01*
X96241666Y-43575057D02*
X96289285Y-43670295D01*
X96289285Y-43670295D02*
X96336904Y-43860771D01*
X96336904Y-43860771D02*
X96336904Y-44098866D01*
X96336904Y-44098866D02*
X96289285Y-44289342D01*
X96289285Y-44289342D02*
X96241666Y-44384580D01*
X96241666Y-44384580D02*
X96194047Y-44432200D01*
X96194047Y-44432200D02*
X96098809Y-44479819D01*
X96098809Y-44479819D02*
X96003571Y-44479819D01*
X96003571Y-44479819D02*
X95908333Y-44432200D01*
X95908333Y-44432200D02*
X95860714Y-44384580D01*
X95860714Y-44384580D02*
X95813095Y-44289342D01*
X95813095Y-44289342D02*
X95765476Y-44098866D01*
X95765476Y-44098866D02*
X95765476Y-43860771D01*
X95765476Y-43860771D02*
X95813095Y-43670295D01*
X95813095Y-43670295D02*
X95860714Y-43575057D01*
X95860714Y-43575057D02*
X95908333Y-43527438D01*
X95908333Y-43527438D02*
X96003571Y-43479819D01*
X99778333Y-38149580D02*
X99730714Y-38197200D01*
X99730714Y-38197200D02*
X99587857Y-38244819D01*
X99587857Y-38244819D02*
X99492619Y-38244819D01*
X99492619Y-38244819D02*
X99349762Y-38197200D01*
X99349762Y-38197200D02*
X99254524Y-38101961D01*
X99254524Y-38101961D02*
X99206905Y-38006723D01*
X99206905Y-38006723D02*
X99159286Y-37816247D01*
X99159286Y-37816247D02*
X99159286Y-37673390D01*
X99159286Y-37673390D02*
X99206905Y-37482914D01*
X99206905Y-37482914D02*
X99254524Y-37387676D01*
X99254524Y-37387676D02*
X99349762Y-37292438D01*
X99349762Y-37292438D02*
X99492619Y-37244819D01*
X99492619Y-37244819D02*
X99587857Y-37244819D01*
X99587857Y-37244819D02*
X99730714Y-37292438D01*
X99730714Y-37292438D02*
X99778333Y-37340057D01*
X100254524Y-38244819D02*
X100445000Y-38244819D01*
X100445000Y-38244819D02*
X100540238Y-38197200D01*
X100540238Y-38197200D02*
X100587857Y-38149580D01*
X100587857Y-38149580D02*
X100683095Y-38006723D01*
X100683095Y-38006723D02*
X100730714Y-37816247D01*
X100730714Y-37816247D02*
X100730714Y-37435295D01*
X100730714Y-37435295D02*
X100683095Y-37340057D01*
X100683095Y-37340057D02*
X100635476Y-37292438D01*
X100635476Y-37292438D02*
X100540238Y-37244819D01*
X100540238Y-37244819D02*
X100349762Y-37244819D01*
X100349762Y-37244819D02*
X100254524Y-37292438D01*
X100254524Y-37292438D02*
X100206905Y-37340057D01*
X100206905Y-37340057D02*
X100159286Y-37435295D01*
X100159286Y-37435295D02*
X100159286Y-37673390D01*
X100159286Y-37673390D02*
X100206905Y-37768628D01*
X100206905Y-37768628D02*
X100254524Y-37816247D01*
X100254524Y-37816247D02*
X100349762Y-37863866D01*
X100349762Y-37863866D02*
X100540238Y-37863866D01*
X100540238Y-37863866D02*
X100635476Y-37816247D01*
X100635476Y-37816247D02*
X100683095Y-37768628D01*
X100683095Y-37768628D02*
X100730714Y-37673390D01*
X96929580Y-52186666D02*
X96977200Y-52234285D01*
X96977200Y-52234285D02*
X97024819Y-52377142D01*
X97024819Y-52377142D02*
X97024819Y-52472380D01*
X97024819Y-52472380D02*
X96977200Y-52615237D01*
X96977200Y-52615237D02*
X96881961Y-52710475D01*
X96881961Y-52710475D02*
X96786723Y-52758094D01*
X96786723Y-52758094D02*
X96596247Y-52805713D01*
X96596247Y-52805713D02*
X96453390Y-52805713D01*
X96453390Y-52805713D02*
X96262914Y-52758094D01*
X96262914Y-52758094D02*
X96167676Y-52710475D01*
X96167676Y-52710475D02*
X96072438Y-52615237D01*
X96072438Y-52615237D02*
X96024819Y-52472380D01*
X96024819Y-52472380D02*
X96024819Y-52377142D01*
X96024819Y-52377142D02*
X96072438Y-52234285D01*
X96072438Y-52234285D02*
X96120057Y-52186666D01*
X96453390Y-51615237D02*
X96405771Y-51710475D01*
X96405771Y-51710475D02*
X96358152Y-51758094D01*
X96358152Y-51758094D02*
X96262914Y-51805713D01*
X96262914Y-51805713D02*
X96215295Y-51805713D01*
X96215295Y-51805713D02*
X96120057Y-51758094D01*
X96120057Y-51758094D02*
X96072438Y-51710475D01*
X96072438Y-51710475D02*
X96024819Y-51615237D01*
X96024819Y-51615237D02*
X96024819Y-51424761D01*
X96024819Y-51424761D02*
X96072438Y-51329523D01*
X96072438Y-51329523D02*
X96120057Y-51281904D01*
X96120057Y-51281904D02*
X96215295Y-51234285D01*
X96215295Y-51234285D02*
X96262914Y-51234285D01*
X96262914Y-51234285D02*
X96358152Y-51281904D01*
X96358152Y-51281904D02*
X96405771Y-51329523D01*
X96405771Y-51329523D02*
X96453390Y-51424761D01*
X96453390Y-51424761D02*
X96453390Y-51615237D01*
X96453390Y-51615237D02*
X96501009Y-51710475D01*
X96501009Y-51710475D02*
X96548628Y-51758094D01*
X96548628Y-51758094D02*
X96643866Y-51805713D01*
X96643866Y-51805713D02*
X96834342Y-51805713D01*
X96834342Y-51805713D02*
X96929580Y-51758094D01*
X96929580Y-51758094D02*
X96977200Y-51710475D01*
X96977200Y-51710475D02*
X97024819Y-51615237D01*
X97024819Y-51615237D02*
X97024819Y-51424761D01*
X97024819Y-51424761D02*
X96977200Y-51329523D01*
X96977200Y-51329523D02*
X96929580Y-51281904D01*
X96929580Y-51281904D02*
X96834342Y-51234285D01*
X96834342Y-51234285D02*
X96643866Y-51234285D01*
X96643866Y-51234285D02*
X96548628Y-51281904D01*
X96548628Y-51281904D02*
X96501009Y-51329523D01*
X96501009Y-51329523D02*
X96453390Y-51424761D01*
X97049580Y-54576666D02*
X97097200Y-54624285D01*
X97097200Y-54624285D02*
X97144819Y-54767142D01*
X97144819Y-54767142D02*
X97144819Y-54862380D01*
X97144819Y-54862380D02*
X97097200Y-55005237D01*
X97097200Y-55005237D02*
X97001961Y-55100475D01*
X97001961Y-55100475D02*
X96906723Y-55148094D01*
X96906723Y-55148094D02*
X96716247Y-55195713D01*
X96716247Y-55195713D02*
X96573390Y-55195713D01*
X96573390Y-55195713D02*
X96382914Y-55148094D01*
X96382914Y-55148094D02*
X96287676Y-55100475D01*
X96287676Y-55100475D02*
X96192438Y-55005237D01*
X96192438Y-55005237D02*
X96144819Y-54862380D01*
X96144819Y-54862380D02*
X96144819Y-54767142D01*
X96144819Y-54767142D02*
X96192438Y-54624285D01*
X96192438Y-54624285D02*
X96240057Y-54576666D01*
X96144819Y-54243332D02*
X96144819Y-53576666D01*
X96144819Y-53576666D02*
X97144819Y-54005237D01*
X98263333Y-49639580D02*
X98215714Y-49687200D01*
X98215714Y-49687200D02*
X98072857Y-49734819D01*
X98072857Y-49734819D02*
X97977619Y-49734819D01*
X97977619Y-49734819D02*
X97834762Y-49687200D01*
X97834762Y-49687200D02*
X97739524Y-49591961D01*
X97739524Y-49591961D02*
X97691905Y-49496723D01*
X97691905Y-49496723D02*
X97644286Y-49306247D01*
X97644286Y-49306247D02*
X97644286Y-49163390D01*
X97644286Y-49163390D02*
X97691905Y-48972914D01*
X97691905Y-48972914D02*
X97739524Y-48877676D01*
X97739524Y-48877676D02*
X97834762Y-48782438D01*
X97834762Y-48782438D02*
X97977619Y-48734819D01*
X97977619Y-48734819D02*
X98072857Y-48734819D01*
X98072857Y-48734819D02*
X98215714Y-48782438D01*
X98215714Y-48782438D02*
X98263333Y-48830057D01*
X99120476Y-48734819D02*
X98930000Y-48734819D01*
X98930000Y-48734819D02*
X98834762Y-48782438D01*
X98834762Y-48782438D02*
X98787143Y-48830057D01*
X98787143Y-48830057D02*
X98691905Y-48972914D01*
X98691905Y-48972914D02*
X98644286Y-49163390D01*
X98644286Y-49163390D02*
X98644286Y-49544342D01*
X98644286Y-49544342D02*
X98691905Y-49639580D01*
X98691905Y-49639580D02*
X98739524Y-49687200D01*
X98739524Y-49687200D02*
X98834762Y-49734819D01*
X98834762Y-49734819D02*
X99025238Y-49734819D01*
X99025238Y-49734819D02*
X99120476Y-49687200D01*
X99120476Y-49687200D02*
X99168095Y-49639580D01*
X99168095Y-49639580D02*
X99215714Y-49544342D01*
X99215714Y-49544342D02*
X99215714Y-49306247D01*
X99215714Y-49306247D02*
X99168095Y-49211009D01*
X99168095Y-49211009D02*
X99120476Y-49163390D01*
X99120476Y-49163390D02*
X99025238Y-49115771D01*
X99025238Y-49115771D02*
X98834762Y-49115771D01*
X98834762Y-49115771D02*
X98739524Y-49163390D01*
X98739524Y-49163390D02*
X98691905Y-49211009D01*
X98691905Y-49211009D02*
X98644286Y-49306247D01*
X93729580Y-52741666D02*
X93777200Y-52789285D01*
X93777200Y-52789285D02*
X93824819Y-52932142D01*
X93824819Y-52932142D02*
X93824819Y-53027380D01*
X93824819Y-53027380D02*
X93777200Y-53170237D01*
X93777200Y-53170237D02*
X93681961Y-53265475D01*
X93681961Y-53265475D02*
X93586723Y-53313094D01*
X93586723Y-53313094D02*
X93396247Y-53360713D01*
X93396247Y-53360713D02*
X93253390Y-53360713D01*
X93253390Y-53360713D02*
X93062914Y-53313094D01*
X93062914Y-53313094D02*
X92967676Y-53265475D01*
X92967676Y-53265475D02*
X92872438Y-53170237D01*
X92872438Y-53170237D02*
X92824819Y-53027380D01*
X92824819Y-53027380D02*
X92824819Y-52932142D01*
X92824819Y-52932142D02*
X92872438Y-52789285D01*
X92872438Y-52789285D02*
X92920057Y-52741666D01*
X92824819Y-51836904D02*
X92824819Y-52313094D01*
X92824819Y-52313094D02*
X93301009Y-52360713D01*
X93301009Y-52360713D02*
X93253390Y-52313094D01*
X93253390Y-52313094D02*
X93205771Y-52217856D01*
X93205771Y-52217856D02*
X93205771Y-51979761D01*
X93205771Y-51979761D02*
X93253390Y-51884523D01*
X93253390Y-51884523D02*
X93301009Y-51836904D01*
X93301009Y-51836904D02*
X93396247Y-51789285D01*
X93396247Y-51789285D02*
X93634342Y-51789285D01*
X93634342Y-51789285D02*
X93729580Y-51836904D01*
X93729580Y-51836904D02*
X93777200Y-51884523D01*
X93777200Y-51884523D02*
X93824819Y-51979761D01*
X93824819Y-51979761D02*
X93824819Y-52217856D01*
X93824819Y-52217856D02*
X93777200Y-52313094D01*
X93777200Y-52313094D02*
X93729580Y-52360713D01*
X107008333Y-53544580D02*
X106960714Y-53592200D01*
X106960714Y-53592200D02*
X106817857Y-53639819D01*
X106817857Y-53639819D02*
X106722619Y-53639819D01*
X106722619Y-53639819D02*
X106579762Y-53592200D01*
X106579762Y-53592200D02*
X106484524Y-53496961D01*
X106484524Y-53496961D02*
X106436905Y-53401723D01*
X106436905Y-53401723D02*
X106389286Y-53211247D01*
X106389286Y-53211247D02*
X106389286Y-53068390D01*
X106389286Y-53068390D02*
X106436905Y-52877914D01*
X106436905Y-52877914D02*
X106484524Y-52782676D01*
X106484524Y-52782676D02*
X106579762Y-52687438D01*
X106579762Y-52687438D02*
X106722619Y-52639819D01*
X106722619Y-52639819D02*
X106817857Y-52639819D01*
X106817857Y-52639819D02*
X106960714Y-52687438D01*
X106960714Y-52687438D02*
X107008333Y-52735057D01*
X107865476Y-52973152D02*
X107865476Y-53639819D01*
X107627381Y-52592200D02*
X107389286Y-53306485D01*
X107389286Y-53306485D02*
X108008333Y-53306485D01*
X102063333Y-39209580D02*
X102015714Y-39257200D01*
X102015714Y-39257200D02*
X101872857Y-39304819D01*
X101872857Y-39304819D02*
X101777619Y-39304819D01*
X101777619Y-39304819D02*
X101634762Y-39257200D01*
X101634762Y-39257200D02*
X101539524Y-39161961D01*
X101539524Y-39161961D02*
X101491905Y-39066723D01*
X101491905Y-39066723D02*
X101444286Y-38876247D01*
X101444286Y-38876247D02*
X101444286Y-38733390D01*
X101444286Y-38733390D02*
X101491905Y-38542914D01*
X101491905Y-38542914D02*
X101539524Y-38447676D01*
X101539524Y-38447676D02*
X101634762Y-38352438D01*
X101634762Y-38352438D02*
X101777619Y-38304819D01*
X101777619Y-38304819D02*
X101872857Y-38304819D01*
X101872857Y-38304819D02*
X102015714Y-38352438D01*
X102015714Y-38352438D02*
X102063333Y-38400057D01*
X102396667Y-38304819D02*
X103015714Y-38304819D01*
X103015714Y-38304819D02*
X102682381Y-38685771D01*
X102682381Y-38685771D02*
X102825238Y-38685771D01*
X102825238Y-38685771D02*
X102920476Y-38733390D01*
X102920476Y-38733390D02*
X102968095Y-38781009D01*
X102968095Y-38781009D02*
X103015714Y-38876247D01*
X103015714Y-38876247D02*
X103015714Y-39114342D01*
X103015714Y-39114342D02*
X102968095Y-39209580D01*
X102968095Y-39209580D02*
X102920476Y-39257200D01*
X102920476Y-39257200D02*
X102825238Y-39304819D01*
X102825238Y-39304819D02*
X102539524Y-39304819D01*
X102539524Y-39304819D02*
X102444286Y-39257200D01*
X102444286Y-39257200D02*
X102396667Y-39209580D01*
X111934580Y-44041666D02*
X111982200Y-44089285D01*
X111982200Y-44089285D02*
X112029819Y-44232142D01*
X112029819Y-44232142D02*
X112029819Y-44327380D01*
X112029819Y-44327380D02*
X111982200Y-44470237D01*
X111982200Y-44470237D02*
X111886961Y-44565475D01*
X111886961Y-44565475D02*
X111791723Y-44613094D01*
X111791723Y-44613094D02*
X111601247Y-44660713D01*
X111601247Y-44660713D02*
X111458390Y-44660713D01*
X111458390Y-44660713D02*
X111267914Y-44613094D01*
X111267914Y-44613094D02*
X111172676Y-44565475D01*
X111172676Y-44565475D02*
X111077438Y-44470237D01*
X111077438Y-44470237D02*
X111029819Y-44327380D01*
X111029819Y-44327380D02*
X111029819Y-44232142D01*
X111029819Y-44232142D02*
X111077438Y-44089285D01*
X111077438Y-44089285D02*
X111125057Y-44041666D01*
X111125057Y-43660713D02*
X111077438Y-43613094D01*
X111077438Y-43613094D02*
X111029819Y-43517856D01*
X111029819Y-43517856D02*
X111029819Y-43279761D01*
X111029819Y-43279761D02*
X111077438Y-43184523D01*
X111077438Y-43184523D02*
X111125057Y-43136904D01*
X111125057Y-43136904D02*
X111220295Y-43089285D01*
X111220295Y-43089285D02*
X111315533Y-43089285D01*
X111315533Y-43089285D02*
X111458390Y-43136904D01*
X111458390Y-43136904D02*
X112029819Y-43708332D01*
X112029819Y-43708332D02*
X112029819Y-43089285D01*
X97849580Y-43241666D02*
X97897200Y-43289285D01*
X97897200Y-43289285D02*
X97944819Y-43432142D01*
X97944819Y-43432142D02*
X97944819Y-43527380D01*
X97944819Y-43527380D02*
X97897200Y-43670237D01*
X97897200Y-43670237D02*
X97801961Y-43765475D01*
X97801961Y-43765475D02*
X97706723Y-43813094D01*
X97706723Y-43813094D02*
X97516247Y-43860713D01*
X97516247Y-43860713D02*
X97373390Y-43860713D01*
X97373390Y-43860713D02*
X97182914Y-43813094D01*
X97182914Y-43813094D02*
X97087676Y-43765475D01*
X97087676Y-43765475D02*
X96992438Y-43670237D01*
X96992438Y-43670237D02*
X96944819Y-43527380D01*
X96944819Y-43527380D02*
X96944819Y-43432142D01*
X96944819Y-43432142D02*
X96992438Y-43289285D01*
X96992438Y-43289285D02*
X97040057Y-43241666D01*
X97944819Y-42289285D02*
X97944819Y-42860713D01*
X97944819Y-42574999D02*
X96944819Y-42574999D01*
X96944819Y-42574999D02*
X97087676Y-42670237D01*
X97087676Y-42670237D02*
X97182914Y-42765475D01*
X97182914Y-42765475D02*
X97230533Y-42860713D01*
D12*
%TO.C,SW3*%
X108390000Y-59320000D02*
X108390000Y-58530000D01*
X106340000Y-57480000D02*
X106540000Y-57480000D01*
X103340000Y-57480000D02*
X105040000Y-57480000D01*
X101490000Y-58530000D02*
X101490000Y-59320000D01*
%TO.C,SW2*%
X103030000Y-32570000D02*
X103030000Y-31780000D01*
X101180000Y-33620000D02*
X99480000Y-33620000D01*
X98180000Y-33620000D02*
X97980000Y-33620000D01*
X96130000Y-31780000D02*
X96130000Y-32570000D01*
%TO.C,SW1*%
X92660000Y-34870000D02*
X91870000Y-34870000D01*
X93710000Y-36720000D02*
X93710000Y-38420000D01*
X93710000Y-39720000D02*
X93710000Y-39920000D01*
X91870000Y-41770000D02*
X92660000Y-41770000D01*
%TO.C,J3*%
X114790000Y-35230000D02*
X114790000Y-36560000D01*
X113460000Y-35230000D02*
X114790000Y-35230000D01*
X112190000Y-35230000D02*
X104510000Y-35230000D01*
X112190000Y-35230000D02*
X112190000Y-37890000D01*
X104510000Y-35230000D02*
X104510000Y-37890000D01*
X112190000Y-37890000D02*
X104510000Y-37890000D01*
%TO.C,J4*%
X125005000Y-51145000D02*
X125005000Y-58825000D01*
X122345000Y-58825000D02*
X125005000Y-58825000D01*
X122345000Y-51145000D02*
X125005000Y-51145000D01*
X122345000Y-51145000D02*
X122345000Y-58825000D01*
X122345000Y-49875000D02*
X122345000Y-48545000D01*
X122345000Y-48545000D02*
X123675000Y-48545000D01*
%TO.C,J2*%
X124640000Y-31460000D02*
X124640000Y-32790000D01*
X123310000Y-31460000D02*
X124640000Y-31460000D01*
X122040000Y-31460000D02*
X114360000Y-31460000D01*
X122040000Y-31460000D02*
X122040000Y-34120000D01*
X114360000Y-31460000D02*
X114360000Y-34120000D01*
X122040000Y-34120000D02*
X114360000Y-34120000D01*
%TO.C,Y1*%
X94525000Y-44825000D02*
X91225000Y-44825000D01*
X91225000Y-44825000D02*
X91225000Y-48825000D01*
%TO.C,U2*%
X110722500Y-54070000D02*
X110722500Y-50310000D01*
X117542500Y-54070000D02*
X117542500Y-50310000D01*
X110722500Y-50310000D02*
X111982500Y-50310000D01*
X117542500Y-50310000D02*
X116282500Y-50310000D01*
X110822500Y-55350000D02*
X110492500Y-55590000D01*
X110492500Y-55110000D01*
X110822500Y-55350000D01*
G36*
X110822500Y-55350000D02*
G01*
X110492500Y-55590000D01*
X110492500Y-55110000D01*
X110822500Y-55350000D01*
G37*
%TO.C,U1*%
X100350000Y-43015000D02*
X100010000Y-42545000D01*
X100690000Y-42545000D01*
X100350000Y-43015000D01*
G36*
X100350000Y-43015000D02*
G01*
X100010000Y-42545000D01*
X100690000Y-42545000D01*
X100350000Y-43015000D01*
G37*
X108160000Y-49785000D02*
X108160000Y-49335000D01*
X108160000Y-42565000D02*
X108160000Y-43015000D01*
X107710000Y-49785000D02*
X108160000Y-49785000D01*
X107710000Y-42565000D02*
X108160000Y-42565000D01*
X101390000Y-49785000D02*
X100940000Y-49785000D01*
X101390000Y-42565000D02*
X100940000Y-42565000D01*
X100940000Y-49785000D02*
X100940000Y-49335000D01*
X100940000Y-42565000D02*
X100940000Y-43015000D01*
%TO.C,R7*%
X104678641Y-40630000D02*
X104371359Y-40630000D01*
X104678641Y-39870000D02*
X104371359Y-39870000D01*
%TO.C,R6*%
X106938641Y-39795000D02*
X106631359Y-39795000D01*
X106938641Y-40555000D02*
X106631359Y-40555000D01*
%TO.C,R5*%
X101620000Y-54933641D02*
X101620000Y-54626359D01*
X102380000Y-54933641D02*
X102380000Y-54626359D01*
%TO.C,R4*%
X118953641Y-54320000D02*
X118646359Y-54320000D01*
X118953641Y-53560000D02*
X118646359Y-53560000D01*
%TO.C,R3*%
X114600000Y-43666359D02*
X114600000Y-43973641D01*
X113840000Y-43666359D02*
X113840000Y-43973641D01*
%TO.C,R2*%
X99946359Y-41120000D02*
X100253641Y-41120000D01*
X99946359Y-41880000D02*
X100253641Y-41880000D01*
%TO.C,R1*%
X102146359Y-37145000D02*
X102453641Y-37145000D01*
X102146359Y-37905000D02*
X102453641Y-37905000D01*
D11*
%TO.C,J1*%
X124610000Y-38385000D02*
X124460000Y-38385000D01*
X122060000Y-38385000D02*
X120660000Y-38385000D01*
X125060000Y-38685000D02*
X124610000Y-38685000D01*
X124610000Y-38685000D02*
X124610000Y-38385000D01*
X118910000Y-40735000D02*
X118910000Y-39735000D01*
X118485000Y-43610000D02*
X118485000Y-44335000D01*
X118910000Y-44335000D02*
X118910000Y-45335000D01*
X118485000Y-44335000D02*
X118910000Y-44335000D01*
X124610000Y-46385000D02*
X125060000Y-46385000D01*
X124610000Y-46685000D02*
X124610000Y-46385000D01*
X124460000Y-46685000D02*
X124610000Y-46685000D01*
X120660000Y-46685000D02*
X122060000Y-46685000D01*
D12*
%TO.C,FB1*%
X98815000Y-52517779D02*
X98815000Y-52192221D01*
X99835000Y-52517779D02*
X99835000Y-52192221D01*
%TO.C,D2*%
X105685000Y-54435000D02*
X105685000Y-52965000D01*
X105685000Y-52965000D02*
X103400000Y-52965000D01*
X103400000Y-54435000D02*
X105685000Y-54435000D01*
%TO.C,D1*%
X117585000Y-56885000D02*
X117585000Y-58355000D01*
X117585000Y-58355000D02*
X119870000Y-58355000D01*
X119870000Y-56885000D02*
X117585000Y-56885000D01*
%TO.C,C15*%
X99500000Y-56787836D02*
X99500000Y-56572164D01*
X100220000Y-56787836D02*
X100220000Y-56572164D01*
%TO.C,C14*%
X104440000Y-31912164D02*
X104440000Y-32127836D01*
X105160000Y-31912164D02*
X105160000Y-32127836D01*
%TO.C,C13*%
X112735580Y-58080000D02*
X112454420Y-58080000D01*
X112735580Y-57060000D02*
X112454420Y-57060000D01*
%TO.C,C12*%
X115935580Y-58080000D02*
X115654420Y-58080000D01*
X115935580Y-57060000D02*
X115654420Y-57060000D01*
%TO.C,C11*%
X94765000Y-48132836D02*
X94765000Y-47917164D01*
X95485000Y-48132836D02*
X95485000Y-47917164D01*
%TO.C,C10*%
X95510000Y-45597164D02*
X95510000Y-45812836D01*
X94790000Y-45597164D02*
X94790000Y-45812836D01*
%TO.C,C9*%
X99837164Y-38590000D02*
X100052836Y-38590000D01*
X99837164Y-39310000D02*
X100052836Y-39310000D01*
%TO.C,C8*%
X97365000Y-51362836D02*
X97365000Y-51147164D01*
X98085000Y-51362836D02*
X98085000Y-51147164D01*
%TO.C,C7*%
X98160000Y-53597164D02*
X98160000Y-53812836D01*
X97440000Y-53597164D02*
X97440000Y-53812836D01*
%TO.C,C6*%
X98315000Y-47607836D02*
X98315000Y-47392164D01*
X99035000Y-47607836D02*
X99035000Y-47392164D01*
%TO.C,C5*%
X94290000Y-52715580D02*
X94290000Y-52434420D01*
X95310000Y-52715580D02*
X95310000Y-52434420D01*
%TO.C,C4*%
X107282836Y-52385000D02*
X107067164Y-52385000D01*
X107282836Y-51665000D02*
X107067164Y-51665000D01*
%TO.C,C3*%
X102042164Y-39915000D02*
X102257836Y-39915000D01*
X102042164Y-40635000D02*
X102257836Y-40635000D01*
%TO.C,C2*%
X110785000Y-43722164D02*
X110785000Y-43937836D01*
X110065000Y-43722164D02*
X110065000Y-43937836D01*
%TO.C,C1*%
X98290000Y-43182836D02*
X98290000Y-42967164D01*
X99010000Y-43182836D02*
X99010000Y-42967164D01*
%TD*%
M02*
