M48
; DRILL file {KiCad 8.0.3} date 2024-12-22T23:45:28+0530
; FORMAT={-:-/ absolute / inch / decimal}
; #@! TF.CreationDate,2024-12-22T23:45:28+05:30
; #@! TF.GenerationSoftware,Kicad,Pcbnew,8.0.3
; #@! TF.FileFunction,MixedPlating,1,2
FMAT,2
INCH
; #@! TA.AperFunction,Plated,PTH,ViaDrill
T1C0.0118
; #@! TA.AperFunction,Plated,PTH,ComponentDrill
T2C0.0217
; #@! TA.AperFunction,Plated,PTH,ComponentDrill
T3C0.0335
; #@! TA.AperFunction,Plated,PTH,ComponentDrill
T4C0.0394
; #@! TA.AperFunction,NonPlated,NPTH,ComponentDrill
T5C0.0315
; #@! TA.AperFunction,NonPlated,NPTH,ComponentDrill
T6C0.0354
%
G90
G05
T1
X3.6224Y-1.9685
X3.7795Y-1.8528
X3.7886Y-1.7803
X3.8079Y-1.472
X3.8846Y-1.6429
X3.9134Y-1.9878
X4.1035Y-1.8004
X4.126Y-1.3465
X4.174Y-1.5437
X4.198Y-2.1441
X4.3531Y-2.2551
X4.3626Y-1.6598
X4.4165Y-2.1177
X4.4535Y-1.687
X4.4768Y-1.8669
X4.5417Y-2.1102
X4.5795Y-1.8571
X4.6244Y-1.7791
X4.6665Y-2.1654
X4.7228Y-2.1661
X4.7441Y-2.1197
X4.772Y-1.6256
T4
X4.1669Y-1.4394
X4.2669Y-1.4394
X4.3669Y-1.4394
X4.4669Y-1.4394
X4.5547Y-1.2909
X4.6547Y-1.2909
X4.7547Y-1.2909
X4.8547Y-1.2909
X4.8691Y-1.9636
X4.8691Y-2.0636
X4.8691Y-2.1636
X4.8691Y-2.2636
T5
X4.7445Y-1.5762
X4.7445Y-1.773
T6
X3.6323Y-1.4496
X3.6323Y-1.5677
X3.8614Y-1.2665
X3.9795Y-1.2665
X4.0724Y-2.3201
X4.1906Y-2.3201
T2
G00X4.84Y-1.522
M15
G01X4.8656Y-1.522
M16
G05
G00X4.84Y-1.8272
M15
G01X4.8656Y-1.8272
M16
G05
T3
G00X4.6923Y-1.528
M15
G01X4.714Y-1.528
M16
G05
G00X4.6923Y-1.8213
M15
G01X4.714Y-1.8213
M16
G05
M30
